<svg id="Layer_1" data-name="Layer 1" xmlns="http://www.w3.org/2000/svg" xmlns:xlink="http://www.w3.org/1999/xlink" viewBox="0 0 60 60"><defs><style>.cls-1{fill:url(#linear-gradient);}.cls-2{fill:#fff;}</style><linearGradient id="linear-gradient" x2="60" y2="60" gradientUnits="userSpaceOnUse"><stop offset="0" stop-color="#cd2524"/><stop offset="0.13" stop-color="#d44626"/><stop offset="0.61" stop-color="#df6d27"/></linearGradient></defs><title>iconArtboard 1</title><rect class="cls-1" width="60" height="60"/><path class="cls-2" d="M29.86,11.17A18.83,18.83,0,1,0,48.69,30,18.83,18.83,0,0,0,29.86,11.17Zm0,34.89A16.06,16.06,0,1,1,45.92,30,16.06,16.06,0,0,1,29.86,46.06Z"/><path class="cls-2" d="M37.26,18.14a.43.43,0,0,0-.43.43v7a.5.5,0,0,1-1,0v-7a.43.43,0,0,0-.43-.43.44.44,0,0,0-.44.43v7a.49.49,0,0,1-1,0v-7a.44.44,0,0,0-.44-.43.43.43,0,0,0-.43.43v7a.49.49,0,1,1-1,0v-7a.44.44,0,0,0-.44-.43.43.43,0,0,0-.43.43v9.27a1.36,1.36,0,0,0,1.36,1.37.49.49,0,0,1,.49.49V34a1.83,1.83,0,0,0-1.39,1.77V45a2.75,2.75,0,0,0,5.5,0V35.72A1.83,1.83,0,0,0,35.84,34V29.7a.49.49,0,0,1,.5-.49,1.36,1.36,0,0,0,1.36-1.37V18.57A.44.44,0,0,0,37.26,18.14Zm-.9,17.58V45a1.88,1.88,0,0,1-3.76,0V35.72a1,1,0,0,1,.95-.95h1.86A1,1,0,0,1,36.36,35.72Zm0-7.38A1.37,1.37,0,0,0,35,29.7v4.2H34V29.7a1.36,1.36,0,0,0-1.36-1.36.49.49,0,0,1-.49-.5v-1a1.3,1.3,0,0,0,.49.09,1.32,1.32,0,0,0,.92-.37,1.36,1.36,0,0,0,.93.37,1.34,1.34,0,0,0,.93-.37,1.36,1.36,0,0,0,1.42.28v1A.49.49,0,0,1,36.34,28.34Z"/><path class="cls-2" d="M25.21,18.14a3.5,3.5,0,0,0-3,1.9,9.76,9.76,0,0,0-1.15,5,4.13,4.13,0,0,0,2.1,3.6,1.39,1.39,0,0,1,.68,1.21V34a1.83,1.83,0,0,0-1.39,1.77V45A2.75,2.75,0,0,0,28,45V35.72A1.83,1.83,0,0,0,26.57,34V29.87a1.39,1.39,0,0,1,.68-1.21,4.13,4.13,0,0,0,2.1-3.6,9.66,9.66,0,0,0-1.15-5A3.5,3.5,0,0,0,25.21,18.14Zm1.88,17.58V45a1.88,1.88,0,0,1-3.76,0V35.72a1,1,0,0,1,1-.95h1.86A1,1,0,0,1,27.09,35.72Zm-.27-7.81a2.24,2.24,0,0,0-1.12,2v4h-1v-4a2.24,2.24,0,0,0-1.12-2,3.27,3.27,0,0,1-1.66-2.85,8.92,8.92,0,0,1,1-4.57A2.66,2.66,0,0,1,25.21,19a2.65,2.65,0,0,1,2.25,1.48,8.92,8.92,0,0,1,1,4.57A3.27,3.27,0,0,1,26.82,27.91Z"/><path class="cls-2" d="M25.67,35.75a.44.44,0,0,0-.43.44v.93a.43.43,0,0,0,.43.43.44.44,0,0,0,.44-.43v-.93A.44.44,0,0,0,25.67,35.75Z"/><path class="cls-2" d="M25.67,38.53a.44.44,0,0,0-.43.44v4.17a.44.44,0,0,0,.43.44.44.44,0,0,0,.44-.44V39A.44.44,0,0,0,25.67,38.53Z"/><path class="cls-2" d="M35,35.75a.44.44,0,0,0-.44.44v.93a.44.44,0,0,0,.44.43.43.43,0,0,0,.43-.43v-.93A.44.44,0,0,0,35,35.75Z"/><path class="cls-2" d="M35,38.53a.44.44,0,0,0-.44.44v4.17a.44.44,0,0,0,.44.44.44.44,0,0,0,.43-.44V39A.44.44,0,0,0,35,38.53Z"/></svg>